<?xml version="1.0" encoding="iso-8859-1"?>
<!-- Generator: Adobe Illustrator 19.0.0, SVG Export Plug-In . SVG Version: 6.00 Build 0)  -->
<svg version="1.1" id="Layer_1" xmlns="http://www.w3.org/2000/svg" xmlns:xlink="http://www.w3.org/1999/xlink" x="0px" y="0px"
	 viewBox="0 0 511.999 511.999" style="enable-background:new 0 0 511.999 511.999;" xml:space="preserve">
<polygon style="fill:#F4B2B0;" points="256,14.714 41.369,192.178 41.369,197.51 41.369,208.976 41.369,214.308 256,391.772 
	470.629,214.308 470.629,208.976 470.629,197.51 470.629,192.178 "/>
<path style="fill:#B3404A;" d="M480.006,225.647c3.381-2.795,5.338-6.953,5.338-11.339v-22.13c0-4.386-1.957-8.544-5.338-11.339
	L265.375,3.374c-5.439-4.499-13.311-4.499-18.75,0L31.993,180.839c-3.381,2.796-5.338,6.953-5.338,11.339v9.225v12.905v279.085
	v0.137v3.756c0,8.126,6.589,14.713,14.713,14.713h429.262c8.125,0,14.713-6.587,14.713-14.713v-3.893V315.929
	c0-8.126-6.589-14.713-14.713-14.713s-14.713,6.587-14.713,14.713v146.208L324.953,353.851L480.006,225.647z M256,33.806
	l199.918,165.299v8.276L256,372.68L66.646,216.116h296.76c8.125,0,14.713-6.587,14.713-14.713s-6.589-14.713-14.713-14.713H71.097
	L256,33.806z M56.082,245.565l130.965,108.286L56.082,462.136C56.082,462.136,56.082,245.565,56.082,245.565z M434.455,482.574
	H77.544l132.592-109.632l36.489,30.169c2.72,2.25,6.047,3.374,9.375,3.374c3.328,0,6.655-1.124,9.375-3.374l36.489-30.169
	L434.455,482.574z"/>
<g>
</g>
<g>
</g>
<g>
</g>
<g>
</g>
<g>
</g>
<g>
</g>
<g>
</g>
<g>
</g>
<g>
</g>
<g>
</g>
<g>
</g>
<g>
</g>
<g>
</g>
<g>
</g>
<g>
</g>
</svg>
