<svg xmlns="http://www.w3.org/2000/svg" width="112" height="130" viewBox="0 0 112 130">
    <defs>
        <radialGradient id="kgvhsw80ea" cx="50%" cy="50%" r="50%" fx="50%" fy="50%" gradientTransform="matrix(0 1 -.99 0 .995 0)">
            <stop offset="0%" stop-color="#008471"/>
            <stop offset="100%" stop-color="#103051"/>
        </radialGradient>
        <radialGradient id="ak1j6el6ib" cx="50%" cy="50%" r="50%" fx="50%" fy="50%" gradientTransform="matrix(0 1 -.99 0 .995 0)">
            <stop offset="0%" stop-color="#008471"/>
            <stop offset="100%" stop-color="#103051"/>
        </radialGradient>
        <radialGradient id="ai9t8spdnc" cx="50%" cy="50%" r="50%" fx="50%" fy="50%" gradientTransform="matrix(0 1 -.99 0 .995 0)">
            <stop offset="0%" stop-color="#008471"/>
            <stop offset="100%" stop-color="#103051"/>
        </radialGradient>
    </defs>
    <g fill="none" fill-rule="evenodd">
        <g>
            <g>
                <g>
                    <path fill="#F72C56" fill-rule="nonzero" d="M110.706 60.483l.483-.618.811.618v65.655c-.006 2.13-1.732 3.856-3.862 3.862H3.862c-2.13-.006-3.856-1.732-3.862-3.862V60.483l.811-.618.483.618h109.412z" transform="translate(-491 -401) translate(90 389) translate(401 12)"/>
                    <path fill="#BB0F33" fill-rule="nonzero" d="M111.189 59.865l-.483.618-52.775 40.551H54.07L1.294 60.483l-.483-.618 18.5-14.387 25.45-19.754 8.902-6.913c1.37-1.081 3.303-1.081 4.673 0l8.903 6.913 25.45 19.754 18.5 14.387z" transform="translate(-491 -401) translate(90 389) translate(401 12)"/>
                    <g fill="#FFB657" fill-rule="nonzero">
                        <path d="M5.858 0c-.513 0-.928.415-.928.928v.624c0 .512.415.928.928.928.512 0 .927-.416.927-.928V.928C6.785.415 6.37 0 5.858 0zM5.858 9.224c-.513 0-.928.415-.928.927v.625c0 .512.415.927.928.927.512 0 .927-.415.927-.927v-.625c0-.512-.415-.927-.927-.927zM8.902 3.74c.237 0 .474-.091.655-.272L10 3.026c.363-.362.363-.95 0-1.312-.361-.362-.949-.362-1.311 0l-.442.441c-.363.362-.363.95 0 1.312.18.181.418.272.656.272zM2.158 8.236l-.442.441c-.362.362-.363.95 0 1.312.18.181.418.272.656.272.237 0 .474-.09.655-.271l.442-.442c.363-.362.363-.95 0-1.312-.361-.362-.949-.362-1.31 0zM10.787 4.924h-.625c-.512 0-.927.415-.927.928 0 .512.415.927.927.927h.625c.513 0 .928-.415.928-.927 0-.513-.415-.928-.928-.928zM2.48 5.852c0-.513-.415-.928-.927-.928H.928c-.513 0-.928.415-.928.928 0 .512.415.927.928.927h.625c.512 0 .928-.415.928-.927zM9.557 8.236c-.362-.362-.95-.362-1.312 0-.362.363-.362.95.001 1.312l.442.442c.181.18.418.271.655.271.238 0 .476-.09.657-.272.362-.363.362-.95 0-1.312l-.443-.441zM3.027 1.714c-.362-.362-.95-.362-1.312 0-.362.363-.361.95.001 1.312l.442.442c.181.18.418.271.656.271.237 0 .475-.09.656-.272.362-.363.362-.95 0-1.312l-.443-.441z" transform="translate(-491 -401) translate(90 389) translate(401 12) translate(83 12)"/>
                    </g>
                    <g fill="#FFB657" fill-rule="nonzero">
                        <path d="M8.298 0c-.726 0-1.314.588-1.314 1.314V2.2c0 .725.588 1.314 1.314 1.314.726 0 1.314-.589 1.314-1.314v-.885C9.612.588 9.024 0 8.298 0zM8.298 13.067c-.726 0-1.314.588-1.314 1.314v.884c0 .726.588 1.315 1.314 1.315.726 0 1.314-.589 1.314-1.315v-.884c0-.726-.588-1.314-1.314-1.314zM12.61 5.297c.337 0 .673-.128.93-.385l.625-.625c.514-.513.514-1.345.001-1.858-.513-.514-1.345-.514-1.858-.002l-.626.626c-.514.513-.514 1.345-.001 1.858.256.257.593.386.93.386zM3.057 11.667l-.626.625c-.513.513-.514 1.346-.001 1.859.257.257.593.385.93.385.336 0 .672-.128.929-.384l.626-.625c.513-.513.514-1.345 0-1.859-.512-.513-1.344-.514-1.858 0zM15.282 6.976h-.886c-.725 0-1.314.588-1.314 1.314 0 .726.589 1.314 1.314 1.314h.886c.726 0 1.314-.588 1.314-1.314 0-.726-.588-1.314-1.314-1.314zM3.514 8.29c0-.726-.588-1.314-1.314-1.314h-.886C.588 6.976 0 7.564 0 8.29c0 .726.588 1.314 1.314 1.314H2.2c.726 0 1.314-.588 1.314-1.314zM13.54 11.667c-.514-.513-1.347-.512-1.86.001-.512.514-.512 1.346.002 1.859l.626.625c.256.256.593.384.929.384.336 0 .673-.128.93-.385.512-.514.512-1.346-.002-1.859l-.626-.625zM3.057 4.912c.257.257.593.385.929.385.336 0 .673-.129.93-.386.513-.513.512-1.345-.001-1.858l-.626-.626c-.514-.512-1.346-.512-1.859.002-.513.513-.512 1.345.001 1.858l.626.625z" transform="translate(-491 -401) translate(90 389) translate(401 12) translate(14 18)"/>
                    </g>
                    <path fill="#FFF" fill-rule="nonzero" d="M63.304 1.477l2.424 4.43c.084.155.21.281.364.365l4.431 2.424c.636.347.636 1.26 0 1.608l-4.43 2.424c-.155.084-.281.21-.365.364l-2.424 4.431c-.347.636-1.26.636-1.608 0l-2.424-4.43c-.084-.155-.21-.281-.364-.365l-4.431-2.424c-.636-.347-.636-1.26 0-1.608l4.43-2.424c.155-.084.281-.21.365-.364l2.424-4.431c.348-.636 1.26-.636 1.608 0zM89.04 33.617l3.137 5.734c.109.2.272.363.472.472l5.734 3.136c.823.45.823 1.632 0 2.082l-5.734 3.136c-.2.109-.363.273-.472.472l-3.136 5.734c-.45.823-1.632.823-2.082 0l-3.136-5.734c-.109-.2-.272-.363-.472-.472l-5.734-3.136c-.823-.45-.823-1.632 0-2.082l5.734-3.136c.2-.109.363-.272.472-.471l3.136-5.735c.45-.823 1.632-.823 2.082 0zM24.115 51.365l1.853 3.388c.065.118.161.214.279.279l3.388 1.853c.487.266.487.964 0 1.23l-3.388 1.853c-.118.065-.214.161-.279.279l-1.853 3.388c-.266.487-.964.487-1.23 0l-1.853-3.388c-.065-.118-.161-.214-.279-.279l-3.388-1.853c-.487-.266-.487-.964 0-1.23l3.388-1.853c.118-.064.214-.161.279-.279l1.853-3.388c.266-.487.964-.487 1.23 0z" transform="translate(-491 -401) translate(90 389) translate(401 12)"/>
                    <g transform="translate(-491 -401) translate(90 389) translate(401 12) translate(33 66)">
                        <ellipse cx="10.081" cy="9.98" fill="url(#kgvhsw80ea)" stroke="#00F6D2" stroke-width="2" rx="11.07" ry="10.969"/>
                        <g>
                            <g>
                                <path fill="#FFF" d="M6.295 0l6.292 10.8H6.294V8.997h3.211l-3.21-5.602V0z" transform="translate(3.527 3.721) translate(.288)"/>
                                <path fill="#FFF" d="M.001 0l6.293 10.8H0V8.997h3.212L.002 3.395V0z" transform="translate(3.527 3.721) translate(.288) matrix(-1 0 0 1 6.294 0)"/>
                                <path fill="#FFF" d="M6.294 4.786L6.294 8.339 4.303 8.343z" transform="translate(3.527 3.721) translate(.288)"/>
                                <path fill="#FFF" d="M8.285 4.786L8.285 8.339 6.294 8.343z" transform="translate(3.527 3.721) translate(.288) matrix(-1 0 0 1 14.578 0)"/>
                                <path stroke="#FFF" stroke-width="1.5" d="M6.293 1.518l4.999 8.523H1.308l4.985-8.523z" transform="translate(3.527 3.721) translate(.288)"/>
                                <path fill="#FFF" d="M6.299 4.781L4.329 8.337 8.304 8.353z" transform="translate(3.527 3.721) translate(.288)"/>
                            </g>
                            <path fill="#FFF" d="M0 6.944L6.713 4.053 6.713 7.376 0 7.241z" transform="translate(3.527 3.721) matrix(-1 0 0 1 6.713 0)"/>
                            <path fill="#FFF" d="M6.713 6.944L13.427 4.053 13.427 7.376 6.713 7.241z" transform="translate(3.527 3.721)"/>
                        </g>
                    </g>
                    <g transform="translate(-491 -401) translate(90 389) translate(401 12) translate(42 32)">
                        <ellipse cx="11.593" cy="11.477" fill="url(#ak1j6el6ib)" stroke="#00F6D2" stroke-width="2" rx="12.58" ry="12.465"/>
                        <g>
                            <g>
                                <path fill="#FFF" d="M7.24 0l7.236 12.42H7.238v-2.074h3.693L7.24 3.905V0z" transform="translate(4.056 4.28) translate(.332)"/>
                                <path fill="#FFF" d="M.001 0l7.237 12.42H0v-2.074h3.693L.001 3.905V0z" transform="translate(4.056 4.28) translate(.332) matrix(-1 0 0 1 7.238 0)"/>
                                <path fill="#FFF" d="M7.238 5.503L7.238 9.589 4.948 9.594z" transform="translate(4.056 4.28) translate(.332)"/>
                                <path fill="#FFF" d="M9.527 5.503L9.527 9.589 7.238 9.594z" transform="translate(4.056 4.28) translate(.332) matrix(-1 0 0 1 16.765 0)"/>
                                <path stroke="#FFF" stroke-width="1.5" d="M7.237 1.523l5.945 10.137H1.308l5.93-10.137z" transform="translate(4.056 4.28) translate(.332)"/>
                                <path fill="#FFF" d="M7.244 5.498L4.978 9.588 9.549 9.606z" transform="translate(4.056 4.28) translate(.332)"/>
                            </g>
                            <path fill="#FFF" d="M0 7.986L7.72 4.661 7.72 8.483 0 8.328z" transform="translate(4.056 4.28) matrix(-1 0 0 1 7.72 0)"/>
                            <path fill="#FFF" d="M7.72 7.986L15.441 4.661 15.441 8.483 7.72 8.328z" transform="translate(4.056 4.28)"/>
                        </g>
                    </g>
                    <g transform="translate(-491 -401) translate(90 389) translate(401 12) translate(64 60)">
                        <ellipse cx="9.121" cy="9.029" fill="url(#ai9t8spdnc)" stroke="#00F6D2" stroke-width="2" rx="10.111" ry="10.02"/>
                        <g>
                            <g>
                                <path fill="#FFF" d="M5.695 0l5.694 9.771H5.694V8.14H8.6L5.695 3.072V0z" transform="translate(3.191 3.367) translate(.26)"/>
                                <path fill="#FFF" d="M.001 0l5.693 9.771H0V8.14h2.906L0 3.072V0z" transform="translate(3.191 3.367) translate(.26) matrix(-1 0 0 1 5.694 0)"/>
                                <path fill="#FFF" d="M5.694 4.33L5.694 7.544 3.893 7.548z" transform="translate(3.191 3.367) translate(.26)"/>
                                <path fill="#FFF" d="M7.496 4.33L7.496 7.544 5.694 7.548z" transform="translate(3.191 3.367) translate(.26) matrix(-1 0 0 1 13.19 0)"/>
                                <path stroke="#FFF" stroke-width="1.5" d="M5.694 1.515l4.398 7.499H1.308l4.386-7.499z" transform="translate(3.191 3.367) translate(.26)"/>
                                <path fill="#FFF" d="M5.699 4.326L3.916 7.543 7.513 7.558z" transform="translate(3.191 3.367) translate(.26)"/>
                            </g>
                            <path fill="#FFF" d="M0 6.283L6.074 3.667 6.074 6.674 0 6.552z" transform="translate(3.191 3.367) matrix(-1 0 0 1 6.074 0)"/>
                            <path fill="#FFF" d="M6.074 6.283L12.148 3.667 12.148 6.674 6.074 6.552z" transform="translate(3.191 3.367)"/>
                        </g>
                    </g>
                    <path fill="#F72C56" d="M1.294 60.483L54.069 101.034 57.931 101.034 110.706 60.483 111.189 59.865 112 60.483 112 126.138 0 126.138 0 60.483 0.811 59.865z" transform="translate(-491 -401) translate(90 389) translate(401 12)"/>
                    <path fill="#FF5A7C" fill-rule="nonzero" d="M111.247 128.416c-.72.998-1.878 1.588-3.109 1.584H3.862c-1.23.004-2.388-.586-3.109-1.584l44.24-34.353 8.67-6.739c1.37-1.081 3.304-1.081 4.674 0l8.67 6.74 44.24 34.352z" transform="translate(-491 -401) translate(90 389) translate(401 12)"/>
                </g>
            </g>
        </g>
    </g>
</svg>
