<svg xmlns="http://www.w3.org/2000/svg" width="24" height="24" viewBox="0 0 24 24">
    <g fill="none" fill-rule="evenodd">
        <g fill="#FFF" fill-rule="nonzero">
            <g>
                <g>
                    <g>
                        <path d="M17.36.012H2.927C1.313.012 0 1.325 0 2.938v10.924c0 1.613 1.313 2.926 2.926 2.926h14.435c1.613 0 2.926-1.313 2.926-2.926V2.938c0-1.613-1.313-2.926-2.926-2.926zm1.756 10.144h-4.291c-.968 0-1.756-.788-1.756-1.756s.788-1.756 1.756-1.756h4.291v3.512zm0-4.682h-4.291c-1.613 0-2.926 1.313-2.926 2.926 0 1.613 1.313 2.926 2.926 2.926h4.291v2.536c0 .968-.787 1.755-1.755 1.755H2.926c-.968 0-1.756-.787-1.756-1.755V2.938c0-.968.788-1.755 1.756-1.755h14.435c.968 0 1.755.787 1.755 1.755v2.536z" transform="translate(-119 -303) translate(90 281) translate(29 22) translate(2 4)"/>
                        <path d="M15.605 7.815h-.78c-.323 0-.585.262-.585.585 0 .323.262.585.585.585h.78c.323 0 .585-.262.585-.585 0-.323-.262-.585-.585-.585z" transform="translate(-119 -303) translate(90 281) translate(29 22) translate(2 4)"/>
                    </g>
                </g>
            </g>
        </g>
    </g>
</svg>
