<svg xmlns="http://www.w3.org/2000/svg" width="24" height="34" viewBox="0 0 24 34">
    <g fill="none" fill-rule="evenodd">
        <g fill="#FFF" fill-rule="nonzero">
            <g>
                <g>
                    <path d="M20.654 16H3.346c-1.017 0-1.846.829-1.846 1.846v12.308C1.5 31.168 2.326 32 3.346 32h17.308c1.014 0 1.846-.826 1.846-1.846V17.846c0-1.014-.826-1.846-1.846-1.846zm-.255 1.23l-8.36 8.363-8.432-8.362h16.792zM2.73 29.9V18.095l5.926 5.877-5.926 5.927zm.87.87l5.93-5.93 2.078 2.06c.24.238.629.237.868-.002l2.026-2.027 5.897 5.9H3.601zm17.67-.87L15.372 24l5.898-5.899v11.798z" transform="translate(-586 -210) translate(557 193) translate(29 17)"/>
                    <g>
                        <path d="M10.453 10.435H1.871l1.919-1.97c.214-.22.215-.578.002-.799-.213-.22-.56-.222-.774-.002L.161 10.6c-.214.22-.215.579 0 .8l2.857 2.936c.214.22.56.219.774-.002.213-.221.212-.579-.002-.799l-1.919-1.97h8.582c.302 0 .547-.253.547-.565 0-.312-.245-.565-.547-.565zM6.466 2.597h-5.13l1.371-1.408c.153-.157.154-.412.001-.57-.152-.158-.4-.159-.552-.002L.115 2.714c-.153.158-.153.414 0 .571l2.04 2.098c.154.157.401.156.553-.002.153-.158.152-.413 0-.57L1.336 3.403h5.13c.215 0 .39-.18.39-.403 0-.223-.175-.403-.39-.403zM6.466 18.597h-5.13l1.371-1.408c.153-.157.154-.412.001-.57-.152-.158-.4-.159-.552-.002L.115 18.714c-.153.158-.153.414 0 .571l2.04 2.098c.154.157.401.156.553-.002.153-.158.152-.413 0-.57l-1.371-1.408h5.13c.215 0 .39-.18.39-.403 0-.223-.175-.403-.39-.403z" transform="translate(-586 -210) translate(557 193) translate(29 17) rotate(-90 6 5.5)"/>
                    </g>
                </g>
            </g>
        </g>
    </g>
</svg>
