<svg xmlns="http://www.w3.org/2000/svg" width="17" height="16" viewBox="0 0 17 16">
    <g fill="none" fill-rule="evenodd" opacity=".499">
        <g fill="#FFF" fill-rule="nonzero" stroke="#FFF" stroke-width=".7">
            <g>
                <path d="M1.004 2.09c-.035-.288.165-.551.453-.586.287-.035.548.166.583.455l.314 2.444C3.538 2.633 5.54 1.539 7.7 1.539c2.751 0 5.198 1.76 6.095 4.37.095.271-.053.57-.323.666-.052.017-.113.026-.174.026-.217 0-.418-.14-.496-.35C12.053 4.06 9.998 2.59 7.7 2.59c-1.881 0-3.631.998-4.606 2.592l2.612-.298c.287-.035.548.175.574.464.027.29-.174.552-.461.578l-3.762.43h-.06c-.262 0-.488-.193-.514-.456l-.48-3.81zm12.939 7.033l-3.762.429c-.287.035-.496.289-.461.578.034.289.287.5.574.464l2.273-.254c-.888 1.883-2.778 3.1-4.876 3.1-2.36 0-4.484-1.585-5.163-3.853-.087-.28-.375-.438-.653-.35-.279.087-.436.376-.349.657.392 1.304 1.21 2.478 2.29 3.301 1.123.85 2.464 1.305 3.875 1.305 2.577 0 4.885-1.541 5.903-3.88l.366 2.917c.035.262.261.455.514.455h.07c.287-.035.487-.298.452-.587l-.488-3.81c-.026-.297-.278-.498-.565-.472z" transform="translate(-320 -737) translate(320 737) matrix(-1 0 0 1 16.43 0)"/>
            </g>
        </g>
    </g>
</svg>
