<svg xmlns="http://www.w3.org/2000/svg" width="16" height="15" viewBox="0 0 16 15">
    <g fill="none" fill-rule="evenodd">
        <g fill="#032E49">
            <g>
                <g>
                    <g>
                        <path d="M7.535 12.245L5.09 13.529c-.489.257-1.093.07-1.35-.42-.103-.194-.138-.417-.1-.634l.466-2.72c.056-.325-.052-.656-.288-.886L1.842 6.942c-.395-.385-.403-1.018-.018-1.414.154-.157.355-.26.573-.292l2.732-.396c.325-.048.607-.252.753-.548l1.221-2.475c.245-.495.844-.699 1.34-.454.197.097.356.257.454.454l1.221 2.475c.146.296.428.5.753.548l2.732.396c.547.08.926.587.846 1.134-.032.218-.134.419-.291.572L12.18 8.87c-.236.23-.344.56-.288.885l.467 2.721c.093.544-.272 1.061-.817 1.155-.217.037-.44.002-.634-.1l-2.444-1.285c-.291-.154-.639-.154-.93 0z" transform="translate(-478 -640) translate(90 389) translate(358 240) translate(30 11)"/>
                    </g>
                </g>
            </g>
        </g>
    </g>
</svg>
