<?xml version="1.0" encoding="UTF-8" standalone="no"?>
<!DOCTYPE svg PUBLIC "-//W3C//DTD SVG 1.1//EN" "http://www.w3.org/Graphics/SVG/1.1/DTD/svg11.dtd">
<svg version="1.1" xmlns="http://www.w3.org/2000/svg" xmlns:xlink="http://www.w3.org/1999/xlink" preserveAspectRatio="xMidYMid meet" viewBox="0 0 112 112" width="112" height="112"><defs><path d="M111.19 41.86L112 42.48C112 81.88 112 103.76 112 108.14C111.99 110.27 110.27 111.99 108.14 112C97.71 112 14.29 112 3.86 112C1.73 111.99 0.01 110.27 0 108.14C0 103.76 0 81.88 0 42.48L0.81 41.86L1.29 42.48L110.71 42.48L111.19 41.86Z" id="aIju5aj1N"></path><path d="M110.71 42.48L57.93 83.03L54.07 83.03L1.29 42.48L0.81 41.86L19.31 27.48L44.76 7.72C50.1 3.58 53.07 1.27 53.66 0.81C55.03 -0.27 56.97 -0.27 58.34 0.81C58.93 1.27 61.9 3.58 67.24 7.72L92.69 27.48L111.19 41.86L110.71 42.48Z" id="aFRJpOZWo"></path><path d="M83.38 54.95C83.38 69.82 71.21 81.87 56.2 81.87C41.19 81.87 29.03 69.82 29.03 54.95C29.03 40.08 41.19 28.03 56.2 28.03C71.21 28.03 83.38 40.08 83.38 54.95Z" id="bqC488ym2"></path><radialGradient id="gradientaQzizC3hz" gradientUnits="userSpaceOnUse" cx="7.3" cy="55.2" dx="7.3" dy="55.2" r="0"><stop style="stop-color: #008471;stop-opacity: 1" offset="0%"></stop><stop style="stop-color: #103051;stop-opacity: 1" offset="100%"></stop></radialGradient><path d="M72.01 66.3L56.27 66.3L56.27 61.79L64.3 61.79L56.27 47.79L56.27 47.79L56.27 39.3L72.01 66.3Z" id="b16fclA6tB"></path><path d="M40.54 66.3L56.27 66.3L56.27 61.79L48.24 61.79L56.27 47.79L56.27 47.79L56.27 39.3L40.54 66.3Z" id="dzVJ1Hpgl"></path><path d="M56.27 51.27L56.27 60.15L51.29 60.16L56.27 51.27Z" id="e1K6AK0ZRe"></path><path d="M56.27 51.27L56.27 60.15L61.25 60.16L56.27 51.27Z" id="b4RRsQBOLW"></path><path d="M69.42 64.78L43.15 64.78L56.27 42.36L69.42 64.78Z" id="d5CeSmGMtv"></path><path d="M56.28 51.26L51.36 60.15L61.3 60.19L56.28 51.26Z" id="a6JclonVjh"></path><path d="M56.6 56.66L39.82 49.44L39.82 57.74L56.6 57.41L56.6 56.66Z" id="a5lJ0d19k"></path><path d="M56.6 56.66L73.38 49.44L73.38 57.74L56.6 57.41L56.6 56.66Z" id="f1Gk7RvPlK"></path><path d="M1.29 42.48L54.07 83.03L57.93 83.03L110.71 42.48L111.19 41.86L112 42.48L112 108.14L0 108.14L0 42.48L0.81 41.86L1.29 42.48Z" id="c2axkrBJNq"></path><path d="M108.14 112C97.71 112 14.29 112 3.86 112C2.63 112 1.47 111.41 0.75 110.42C3.7 108.13 18.45 96.67 44.99 76.06C50.2 72.02 53.09 69.77 53.66 69.32C55.03 68.24 56.97 68.24 58.34 69.32C58.92 69.77 61.81 72.02 67.01 76.06L111.25 110.42C110 111.47 108.96 112 108.14 112Z" id="b3C299jT8v"></path></defs><g><g><g><use xlink:href="#aIju5aj1N" opacity="1" fill="#f72c56" fill-opacity="1"></use><g><use xlink:href="#aIju5aj1N" opacity="1" fill-opacity="0" stroke="#000000" stroke-width="1" stroke-opacity="0"></use></g></g><g><use xlink:href="#aFRJpOZWo" opacity="1" fill="#bb0e32" fill-opacity="1"></use><g><use xlink:href="#aFRJpOZWo" opacity="1" fill-opacity="0" stroke="#000000" stroke-width="1" stroke-opacity="0"></use></g></g><g><use xlink:href="#bqC488ym2" opacity="1" fill="url(#gradientaQzizC3hz)"></use><g><use xlink:href="#bqC488ym2" opacity="1" fill-opacity="0" stroke="#00f6d2" stroke-width="4" stroke-opacity="1"></use></g></g><g><use xlink:href="#b16fclA6tB" opacity="1" fill="#ffffff" fill-opacity="1"></use><g><use xlink:href="#b16fclA6tB" opacity="1" fill-opacity="0" stroke="#000000" stroke-width="1" stroke-opacity="0"></use></g></g><g><use xlink:href="#dzVJ1Hpgl" opacity="1" fill="#ffffff" fill-opacity="1"></use><g><use xlink:href="#dzVJ1Hpgl" opacity="1" fill-opacity="0" stroke="#000000" stroke-width="1" stroke-opacity="0"></use></g></g><g><use xlink:href="#e1K6AK0ZRe" opacity="1" fill="#ffffff" fill-opacity="1"></use><g><use xlink:href="#e1K6AK0ZRe" opacity="1" fill-opacity="0" stroke="#000000" stroke-width="1" stroke-opacity="0"></use></g></g><g><use xlink:href="#b4RRsQBOLW" opacity="1" fill="#ffffff" fill-opacity="1"></use><g><use xlink:href="#b4RRsQBOLW" opacity="1" fill-opacity="0" stroke="#000000" stroke-width="1" stroke-opacity="0"></use></g></g><g><use xlink:href="#d5CeSmGMtv" opacity="1" fill="#000000" fill-opacity="0"></use><g><use xlink:href="#d5CeSmGMtv" opacity="1" fill-opacity="0" stroke="#ffffff" stroke-width="3" stroke-opacity="1"></use></g></g><g><use xlink:href="#a6JclonVjh" opacity="1" fill="#ffffff" fill-opacity="1"></use><g><use xlink:href="#a6JclonVjh" opacity="1" fill-opacity="0" stroke="#000000" stroke-width="1" stroke-opacity="0"></use></g></g><g><use xlink:href="#a5lJ0d19k" opacity="1" fill="#ffffff" fill-opacity="1"></use><g><use xlink:href="#a5lJ0d19k" opacity="1" fill-opacity="0" stroke="#000000" stroke-width="1" stroke-opacity="0"></use></g></g><g><use xlink:href="#f1Gk7RvPlK" opacity="1" fill="#ffffff" fill-opacity="1"></use><g><use xlink:href="#f1Gk7RvPlK" opacity="1" fill-opacity="0" stroke="#000000" stroke-width="1" stroke-opacity="0"></use></g></g><g><use xlink:href="#c2axkrBJNq" opacity="1" fill="#f72c56" fill-opacity="1"></use><g><use xlink:href="#c2axkrBJNq" opacity="1" fill-opacity="0" stroke="#000000" stroke-width="1" stroke-opacity="0"></use></g></g><g><use xlink:href="#b3C299jT8v" opacity="1" fill="#ff5a7c" fill-opacity="1"></use><g><use xlink:href="#b3C299jT8v" opacity="1" fill-opacity="0" stroke="#000000" stroke-width="1" stroke-opacity="0"></use></g></g></g></g></svg>